<svg xmlns="http://www.w3.org/2000/svg" fill="none" width="25" height="25" viewBox="0 0 25 25"><path d="M15.462 20.833H6.771a2.607 2.607 0 0 1-2.605-2.604 2.606 2.606 0 0 1 2.605-2.604h7.291a3.65 3.65 0 0 0 3.646-3.646 3.65 3.65 0 0 0-3.646-3.646H9c-.383.75-.857 1.45-1.41 2.084h6.473a1.564 1.564 0 0 1 0 3.125H6.771a4.693 4.693 0 0 0-4.688 4.687 4.693 4.693 0 0 0 4.688 4.688h9.992a10.853 10.853 0 0 1-1.3-2.084ZM5.208 2.083a3.129 3.129 0 0 0-3.125 3.125c0 3.321 3.125 5.209 3.125 5.209s3.125-1.889 3.125-5.209a3.129 3.129 0 0 0-3.125-3.125Zm0 4.688a1.563 1.563 0 1 1 .001-3.126 1.563 1.563 0 0 1-.001 3.126Z" fill="#fff"/><path d="M19.792 14.583a3.129 3.129 0 0 0-3.125 3.125c0 3.321 3.125 5.209 3.125 5.209s3.125-1.889 3.125-5.209a3.129 3.129 0 0 0-3.125-3.125Zm0 4.688a1.564 1.564 0 1 1 .001-3.128 1.564 1.564 0 0 1-.001 3.128Z" fill="#fff"/></svg>