<svg xmlns="http://www.w3.org/2000/svg" fill="none" width="36" height="36" viewBox="0 0 36 36"><path d="M18 13.314A4.696 4.696 0 0 0 13.314 18 4.696 4.696 0 0 0 18 22.686 4.696 4.696 0 0 0 22.686 18 4.696 4.696 0 0 0 18 13.314ZM32.056 18c0-1.94.017-3.864-.092-5.8-.109-2.25-.622-4.248-2.267-5.893-1.65-1.649-3.642-2.159-5.892-2.268-1.941-.109-3.864-.09-5.801-.09-1.94 0-3.864-.019-5.801.09-2.25.11-4.247.623-5.892 2.268C4.66 7.956 4.152 9.95 4.043 12.2c-.109 1.94-.091 3.864-.091 5.801 0 1.937-.018 3.864.091 5.8.11 2.25.622 4.248 2.268 5.893 1.649 1.649 3.642 2.159 5.892 2.268 1.94.108 3.864.091 5.8.091 1.941 0 3.864.017 5.802-.091 2.25-.11 4.246-.623 5.892-2.268 1.649-1.649 2.158-3.642 2.267-5.892.113-1.937.092-3.86.092-5.801ZM18 25.21A7.2 7.2 0 0 1 10.79 18 7.2 7.2 0 0 1 18 10.79 7.2 7.2 0 0 1 25.21 18 7.2 7.2 0 0 1 18 25.21Zm7.506-13.032a1.682 1.682 0 0 1-1.684-1.684c0-.931.752-1.684 1.684-1.684a1.682 1.682 0 0 1 1.556 2.329 1.68 1.68 0 0 1-1.556 1.04Z" fill="#fff"/></svg>