<svg xmlns="http://www.w3.org/2000/svg" fill="none" width="86" height="86" viewBox="0 0 86 86"><path d="M43.692 62.276S3.225 74.632 3.138 75.526c-.088.893 16.199 8.075 43.416 7.7 25.961-.357 35.992-6.982 36.167-7.7.175-.72-38.136-13.431-39.03-13.25Z" fill="#88B154"/><path d="m41.83 28.32-2.895-3.642s-4.676 4.905-5.94 6.242c-1.262 1.337-2.237 2.11-2.841 3.366-.867 1.794-3.615 17.28-3.615 17.28l-7.948 8.164s-1.499-.934-1.868-.632c-.37.303-12.544 14.815-12.544 14.815l-1.048 1.606s2.419.537 3.164.463c.363-.033 2.15-.443 4.173-.651 2.13-.222 4.85-.04 5.153-.074.343-.034 1.525-.383 1.525-.383l10.575-6.31 8.399-.322 8.237 1.734 15.594.746 8.54-12.773-18.564-24.584-8.096-5.046Z" fill="#9EA2A3"/><path d="m19.182 65.69-.504-1.439c-.215-.611-.087-4.521-.087-4.521s4.844 2.862 5.382 3.332c.537.47 5.334 3.46 5.334 3.46l2.89-.074.584 1.297s-4.159 1.975-5.53 2.412c-1.37.43-10.152 4.898-10.138 4.73.027-.35 2.284-3.58 2.284-3.58l-.215-5.618Z" fill="#717A7C"/><path d="M54.24 69.512 21.145 74.74s-1.599 1.418-1.438 1.794c.162.377 6.269 1.512 8.378 1.78 2.11.27 16.535 1.082 18.1.975 1.566-.108 17.564-.92 19.78-1.19 2.218-.268 9.67-.785 10.16-1.007.947-.43 5.294-2.775 5.294-2.775s-4.864-7.673-5.839-9.514c-.974-1.834-2.593-5.133-3.728-6.268-1.136-1.136-1.949-1.62-1.949-1.62s-1.532-3.56-3.319-5.831c-1.78-2.271-4.22-5.946-4.79-6.51-2.144-2.137-2.204-2.339-2.204-2.339l1.343 16.192s-2.485 4.972-3.352 6.323c-.853 1.364-3.34 4.763-3.34 4.763Z" fill="#798082"/><path d="m42.349 18.557-.652 13.182 7.666 4.757s2.304 5.906 2.412 6.45c.107.538-.1 1.996.114 2.372.215.376 4.186 3.11 4.34 3.117.88.047 2.701-.268 2.594-.43-.108-.16.725-3.668.725-3.668s-5.267-8.54-6.403-10.918c-1.135-2.378-5.401-8.54-5.892-9.567-.49-1.029-2.808-4.435-3.299-4.972-.49-.538-1.276-.7-1.605-.323Z" fill="#717A7C"/><path d="M45.701 43.706s3.621-5.967 3.729-6.88c.107-.914-2.916-6.484-3.675-8.486-.76-2.002-2.755-6.108-2.97-6.645-.215-.538-.43-3.131-.43-3.131s-1.512 1.62-2.056 2.916c-.537 1.297-2.573 4.488-2.573 4.488s1.276 7.404 1.767 10.589c.484 3.191.846 7.377.773 7.532-.464.94-3.581 8.519-3.581 8.519s-.404 3.675-.027 4.051c.376.377 2.56.874 2.727.618.33-.49.323-2.351.323-2.351s6.06-8.184 6.255-8.587c.074-.154-.262-2.633-.262-2.633Zm-12.349.584c-.02-.813-1.21-4.67-1.424-5.536-.215-.867-.672-5.147-1.27-5.147-.591 0-3.333 7.539-3.608 8.244-.269.706-4.105 8.97-4.596 9.944-.484.974-2.7 5.187-3.13 5.892-.43.706-1.002 1.902-1.002 1.902l10.979 6.94 3.964-.45s-2.318-6.228-2.863-7.632c-.544-1.405-1.189-3.676-1.189-3.676s1.257-3.01 2.076-5.173c.827-2.177 2.09-4.502 2.063-5.308Zm-16.34 14.815c.027.1.168 2.634.094 4.145-.074 1.519-.37 3.037-.37 3.037l-4.89 5.106-.155 1.15s-7.431 2.626-7.915 2.774c-.484.148-.638.202-.638.202s-1.008-.612 2.009-3.904c3.897-4.253 8.882-10.078 9.513-10.81 1.122-1.297 2.278-2.002 2.352-1.7Z" fill="silver"/><path d="M71.696 67.067c-.403-.168-1.431 4.38-1.646 5.986-.215 1.606-.787 4.656-.639 4.959.43.853 5.013.288 5.456-.444.128-.208-.517-3.628-.981-5.073-.632-1.975-1.149-4.992-2.19-5.428Zm8.029-5.731c-.632.026-1.304 5.543-1.72 6.745-.47 1.364-2.043 7.82-1.391 8.56.651.739 3.144.154 4.071-.114.894-.256 1.667-.686 1.882-1.163.215-.477-.296-4.327-.914-7.014-.632-2.721-.934-7.061-1.928-7.014Z" fill="#33632C"/><path d="M21.144 74.746s1.74.659 7.7 1.028c5.96.37 8.889.336 8.889.336l13.612-1.989 3.09-4.891s-4.111-.154-6.295-.228c-2.184-.074-5.442-.088-5.59-.49-.148-.41 3.675-3.186 4.75-3.737 1.075-.557 3.669-.853 4.26-1.478.591-.631 8.062-4.844 8.983-4.877.927-.04 3.816 1.74 4.367 1.552.558-.189-1.921-6.746-2.25-7.976-.028-.107-1.338-6.497-1.378-6.618-.31-.947-1.256-3.406-1.854-3.11-.592.295-1.593 2.553-2.332 4.81-.739 2.258-1.182 3.447-1.552 3.998-.37.55-4.663 3.299-5.26 3.924-.592.631-2.372 1.962-3.447 2.405-1.075.443-2.11.443-2.89 1.149-.779.705-1.74 1.928-2.815 3.07-1.075 1.15-3.258 3.783-3.977 4.428-.719.645-1.364 1.27-1.364 1.27s-5.194 1.471-6.94 2.318c-1.734.853-8.157 4.992-7.707 5.106Z" fill="silver"/><path d="M75.11 34.951c-.572.571-.592 1.478.04 1.995.557.464 1.477.162 1.82-.255.343-.416.302-1.323-.154-1.78-.457-.457-1.364-.303-1.707.04Z" fill="#fff"/><path d="M75.297 43.45c-.611.672-.41 1.673.154 2.043.565.37 1.411.336 1.828-.175.37-.457.41-1.37-.155-1.935-.49-.49-1.43-.37-1.827.067Z" fill="#fff" opacity=".5"/><path d="M57.781 21.54c-.174.558.175 1.19.706 1.284.557.1 1.128-.06 1.283-.592.154-.537-.04-1.21-.806-1.343-.766-.135-1.095.349-1.183.651Z" fill="#fff" opacity=".6"/><path d="M63.519 30.98s.497-1.827.86-1.888c.363-.06 1.088 1.962 1.088 1.962s1.808.06 1.868.343c.06.289-1.276 1.37-1.276 1.37s.497 1.694.289 1.908c-.209.209-1.868-.86-1.868-.86s-1.485 1.257-1.828 1.029c-.342-.229.29-2.117.29-2.117s-1.412-1.008-1.432-1.35c-.027-.343 2.009-.397 2.009-.397Zm-40.984-5.032s.651-1.875 1.048-1.895c.39-.02.96 1.875.96 1.875s1.936.02 2.07.302c.168.363-1.243 1.592-1.243 1.592s.457 1.828.242 2.05c-.242.241-1.915-.72-1.915-.72s-1.72 1.197-2.09.874c-.322-.282.35-2.224.35-2.224s-1.613-1.176-1.525-1.505c.114-.457 2.103-.35 2.103-.35Z" fill="#fff"/><path d="M7.968 30.98c-.403-.02-.954.383-.954 1.075 0 .51.49.934.914.934.611 0 1.035-.463 1.014-.994-.026-.692-.55-.995-.974-1.015Z" fill="#fff" opacity=".5"/><path d="M12.41 41.005c.04.765.423 1.417 1.417 1.39.995-.027 1.814-1.552.867-2.445-.947-.894-2.338.026-2.284 1.054Zm-6.598 9.372c.47.524 1.599.316 1.626-.605.027-.84-.397-1.236-1.183-1.128-.78.107-1.014 1.095-.443 1.733Zm13.31 10.334-1.23-1.56-2.399 1.103-5.576 9.016 1.908 2.15s4.67-2.566 5.167-2.667c.746-.155 3.245-.054 3.245-.054l-1.115-7.988Z" fill="#fff"/><path d="m19.303 68.686 3.776.067s4.031 1.257 5.778.887c1.747-.37 3.722-1.982 3.722-1.982s1.525-.618.766-1.498c-.175-.202-1.317-.518-4.428-1.297-3.11-.78-3.514-1.384-3.514-1.384s-3.621-2.513-4.918-3.487c-1.296-.974-2.58-.988-2.58-.988s.833 3.077 1.021 4.925c.182 1.848.377 4.757.377 4.757Z" fill="#8CC2EA"/><path d="M3.87 73.194c-.47.571 2.95-.457 4.26-.773 1.672-.403 3.708-1.014 3.708-1.014l.538-4.085s3.5-6.289 3.957-6.813c.457-.524 2.23-1.404 2.23-1.404s-1.06-.531-1.793-.571c-1.243-.067-3.615 2.694-4.851 4.313-1.23 1.62-3.373 4.542-3.373 4.542s-1.001.269-2.022 1.707c-1.539 2.176-2.654 4.098-2.654 4.098Z" fill="#C6E4F7"/><path d="M26.74 60.865c-.456-.047-1.034 1.478-1.343 2.614-.222.8-1.653 4.85-1.821 5.637-.175.793-1.061 3.13-.82 3.238.242.1 1.028.282 1.445.114.107-.04 1.565-1.048 2.62-1.68 1.055-.63 2.096-1.202 2.096-1.242 0-.41-.806-4.186-.893-4.69-.249-1.444-.571-3.917-1.283-3.99Z" fill="#33632C"/><path d="M30.846 62.384c-.397.134-.887 1.666-1.35 3.251-.296 1.001-1.156 4.005-.948 4.153.208.147 2.244.174 3.104-.256.826-.416 1.417-.94 1.525-1.236.108-.296-.833-2.902-1.196-3.857-.282-.718-.719-2.203-1.135-2.055Z" fill="#33632C"/><path d="m31.302 47.334-8.304 3.312-.665 1.43s1.29 1.446 2.19 2.42c.78.84 2.863 1.955 3.232 2.707.726 1.478 3.568 2.997 4.985 3.71 1.418.711 1.478-.122 1.478-.122l-2.916-13.457Zm3.541 19.497-1.653 1.203s1.781 1.19 3.098 1.586c1.317.396 3.426 1.182 5.664 1.578 2.237.397 4.347.135 5.791.263 1.452.134 4.408 1.599 4.408 1.599s.625-1.284 1.25-2.17c.624-.88.833-1.371.833-1.371l-5.684-1.236-13.707-1.452Z" fill="#9EA2A3"/><path d="M51.412 71.239c-.484.04-1.163 3.668-1.404 4.475-.135.457-1.257 3.58-.955 4.105.605 1.075 5.577.786 5.799.221.215-.564-1.418-4.34-1.72-5.039-.31-.685-1.008-3.823-1.72-3.762Z" fill="#33632C"/><path d="m30.86 33.21-7.33 17.967s.456.712 1.101 1.491c.652.78 3.05 2.721 3.83 3.306.78.585.846 1.102 1.814 1.754.974.651 4.475 2.338 5.71 2.983l3.306 1.753s-2.076 2.144-2.66 2.983c-.585.847-1.082 1.667-1.082 1.667l10.743 1.639s18.732-8.385 18.611-8.795c-.12-.41-.772-9.493-1.162-9.95-.39-.457-4.347-6.813-4.347-6.813l-3.957-.585-6.229-11.805-6.55-10.703-4.475 6.941-2.399 4.408-4.924 1.76Z" fill="#fff"/><path d="M39.358 58.568c-.074.45 1.102 2.338 1.62 2.27.517-.067 3.567-2.72 4.347-3.245.779-.517 5.32-3.44 6.355-4.085 1.035-.652 3.763-3.03 3.958-3.373.255-.463 1.068-4.636 1.23-5.186.073-.242 1.612-1.452 1.78-1.243.336.41 1.787 4.42 2.11 5.522.322 1.102 2.27 8.89 2.398 9.407.195.766 1.62 2.203 2.788 1.491 1.17-.712 4.374-1.995 4.75-2.607.202-.322-2.566-4.387-4.05-6.51-1.486-2.123-2.863-4.354-4.234-6.255-1.122-1.559-1.82-2.526-2.566-2.923-.753-.396-1.391.524-1.391.524L51.996 31.19c-.974-1.687-6.127-9.783-7.41-11.644-.84-1.223-1.364-1.579-2.15-1.129-.787.444-.363 3.756-.363 3.756s7.343 14.056 7.007 14.983c-.342.927-3.05 5.906-4.541 8.889-1.485 2.99-4.986 11.361-5.18 12.524Z" fill="#8CC2EA"/><path d="M31.53 34.662c.538-.806 5.168 9.635 6.337 9.762 1.169.128 1.948-7.975 1.814-9.795-.128-1.815 0-7.848.517-9.145.517-1.297 1.881-3.305 1.881-3.305s.76-1.613.833-2.043c.222-1.243-.073-1.895-.073-1.895s-.76.175-1.479 1.15c-.712.974-3.648 6.57-3.648 6.57s-3.682 3.682-4.717 4.394c-1.034.712-2.532 1.62-2.855 2.204-.322.585-2.855 7.626-4.085 10.441-1.532 3.52-3.01 6.517-3.064 7.646-.013.222 1.21 1.492 1.21 1.492s1.028-1.976 2.257-5.214c1.23-3.239 4.542-11.456 5.073-12.262Zm4.785 31.262s-.975 1.27-.86 1.465c.322.551 5.072 1.942 5.912 2.076.84.135 5.644.585 7.263.457 1.62-.128 5.603-.41 5.603-.41s2.634-3.158 3.28-3.682c.651-.517 4.084-1.814 4.084-1.814l4.247-3.83s-1.237-.087-1.848-.45c-.612-.362-.84-1.108-.84-1.108s-2.983 1.686-4.22 2.338c-1.229.652-5.966 2.204-7.33 2.983-1.363.78-5.186 2.721-5.186 2.721s-6.746.517-7.398.323c-.638-.182-2.707-1.069-2.707-1.069Z" fill="#C6E4F7"/><path d="M23.872 13.491c-.612.672-.41 1.673.154 2.043.564.37 1.411.336 1.828-.175.37-.457.41-1.37-.155-1.935-.49-.484-1.438-.363-1.827.067Z" fill="#fff" opacity=".5"/></svg>