<svg width="26" height="26" viewBox="0 0 26 26" fill="none" xmlns="http://www.w3.org/2000/svg">
<g clip-path="url(#clip0_252_2018)">
<path d="M9.75016 4.33325H5.41683C4.81852 4.33325 4.3335 4.81828 4.3335 5.41659V9.74992C4.3335 10.3482 4.81852 10.8333 5.41683 10.8333H9.75016C10.3485 10.8333 10.8335 10.3482 10.8335 9.74992V5.41659C10.8335 4.81828 10.3485 4.33325 9.75016 4.33325Z" stroke="white" stroke-linecap="round" stroke-linejoin="round"/>
<path d="M20.5832 4.33325H16.2498C15.6515 4.33325 15.1665 4.81828 15.1665 5.41659V9.74992C15.1665 10.3482 15.6515 10.8333 16.2498 10.8333H20.5832C21.1815 10.8333 21.6665 10.3482 21.6665 9.74992V5.41659C21.6665 4.81828 21.1815 4.33325 20.5832 4.33325Z" stroke="white" stroke-linecap="round" stroke-linejoin="round"/>
<path d="M9.75016 15.1667H5.41683C4.81852 15.1667 4.3335 15.6518 4.3335 16.2501V20.5834C4.3335 21.1817 4.81852 21.6667 5.41683 21.6667H9.75016C10.3485 21.6667 10.8335 21.1817 10.8335 20.5834V16.2501C10.8335 15.6518 10.3485 15.1667 9.75016 15.1667Z" stroke="white" stroke-linecap="round" stroke-linejoin="round"/>
<path d="M20.5832 15.1667H16.2498C15.6515 15.1667 15.1665 15.6518 15.1665 16.2501V20.5834C15.1665 21.1817 15.6515 21.6667 16.2498 21.6667H20.5832C21.1815 21.6667 21.6665 21.1817 21.6665 20.5834V16.2501C21.6665 15.6518 21.1815 15.1667 20.5832 15.1667Z" stroke="white" stroke-linecap="round" stroke-linejoin="round"/>
</g>
<defs>
<clipPath id="clip0_252_2018">
<rect width="26" height="26" fill="white"/>
</clipPath>
</defs>
</svg>
